<svg xmlns="http://www.w3.org/2000/svg" width="32.198" height="32.198" viewBox="0 0 32.198 32.198"><defs><style>.a{fill:#fff;}</style></defs><path class="a" d="M19.72,28.441a8.72,8.72,0,1,1,8.72-8.72A8.73,8.73,0,0,1,19.72,28.441Zm0-15.428a6.708,6.708,0,1,0,6.708,6.708A6.716,6.716,0,0,0,19.72,13.012Z" transform="translate(3.758 3.758)"/><path class="a" d="M17.756,23.391a1.007,1.007,0,0,1-1.006-1.006V15.006a1.006,1.006,0,1,1,2.012,0v7.379A1.007,1.007,0,0,1,17.756,23.391Z" transform="translate(5.722 4.782)"/><path class="a" d="M22.385,18.762H15.006a1.006,1.006,0,1,1,0-2.012h7.379a1.006,1.006,0,1,1,0,2.012Z" transform="translate(4.782 5.722)"/><path class="a" d="M12.329,28.173H3.689A3.692,3.692,0,0,1,0,24.484V3.689A3.692,3.692,0,0,1,3.689,0H19.118a3.692,3.692,0,0,1,3.689,3.689v8.17a1.006,1.006,0,1,1-2.012,0V3.689a1.679,1.679,0,0,0-1.677-1.677H3.689A1.679,1.679,0,0,0,2.012,3.689V24.484a1.679,1.679,0,0,0,1.677,1.677h8.64a1.006,1.006,0,1,1,0,2.012Z" transform="translate(0 0)"/><path class="a" d="M16.751,10.012H4.006A1.006,1.006,0,0,1,4.006,8H16.751a1.006,1.006,0,0,1,0,2.012Z" transform="translate(1.025 2.733)"/><path class="a" d="M11.385,14.012H4.006a1.006,1.006,0,0,1,0-2.012h7.379a1.006,1.006,0,1,1,0,2.012Z" transform="translate(1.025 4.099)"/><path class="a" d="M10.043,6.012H4.006A1.006,1.006,0,0,1,4.006,4h6.037a1.006,1.006,0,0,1,0,2.012Z" transform="translate(1.025 1.366)"/></svg>