<svg xmlns="http://www.w3.org/2000/svg" width="30.767" height="30.767" viewBox="0 0 30.767 30.767"><defs><style>.a{fill:#fff;}</style></defs><path class="a" d="M21.846,25.692a3.846,3.846,0,1,1,3.846-3.846A3.851,3.851,0,0,1,21.846,25.692Zm0-5.769a1.923,1.923,0,1,0,1.923,1.923A1.925,1.925,0,0,0,21.846,19.923Z" transform="translate(5.075 5.075)"/><path class="a" d="M11.961,24.1A.962.962,0,0,1,11,23.134V21.852a1.6,1.6,0,0,1,1.6-1.6h8.012a.961.961,0,0,1,0,1.923H12.923v.961A.962.962,0,0,1,11.961,24.1Z" transform="translate(3.102 5.71)"/><path class="a" d="M13.961,24.1A.962.962,0,0,1,13,23.134V21.211a.961.961,0,1,1,1.923,0v1.923A.962.962,0,0,1,13.961,24.1Z" transform="translate(3.666 5.71)"/><path class="a" d="M10.576,23.666H2.884A2.888,2.888,0,0,1,0,20.781V9.884A2.888,2.888,0,0,1,2.884,7H17.627a2.888,2.888,0,0,1,2.884,2.884V20.14a.961.961,0,1,1-1.923,0V9.884a.963.963,0,0,0-.961-.961H2.884a.963.963,0,0,0-.961.961v10.9a.963.963,0,0,0,.961.961h7.692a.961.961,0,1,1,0,1.923Z" transform="translate(0 1.974)"/><path class="a" d="M14.858,10.9a.962.962,0,0,1-.961-.961V6.41a4.487,4.487,0,0,0-8.974,0V9.935A.961.961,0,1,1,3,9.935V6.41a6.41,6.41,0,0,1,12.82,0V9.935A.962.962,0,0,1,14.858,10.9Z" transform="translate(0.846 0)"/></svg>