<svg xmlns="http://www.w3.org/2000/svg" width="21.043" height="25.994" viewBox="0 0 21.043 25.994"><defs><style>.a{fill:#fff;}</style></defs><path class="a" d="M11.375,25.994H3.4A3.407,3.407,0,0,1,0,22.59V3.4A3.407,3.407,0,0,1,3.4,0H17.639a3.407,3.407,0,0,1,3.4,3.4v7.538a.928.928,0,1,1-1.857,0V3.4a1.549,1.549,0,0,0-1.547-1.547H3.4A1.549,1.549,0,0,0,1.857,3.4V22.59A1.549,1.549,0,0,0,3.4,24.137h7.971a.928.928,0,1,1,0,1.857Z" transform="translate(0 0)"/><path class="a" d="M9.667,25.994h7.971a3.407,3.407,0,0,0,3.4-3.4V3.4a3.407,3.407,0,0,0-3.4-3.4H3.4A3.407,3.407,0,0,0,0,3.4v7.538a.928.928,0,0,0,1.857,0V3.4A1.549,1.549,0,0,1,3.4,1.857H17.639A1.549,1.549,0,0,1,19.186,3.4V22.59a1.549,1.549,0,0,1-1.547,1.547H9.667a.928.928,0,0,0,0,1.857Z" transform="translate(0)"/><path class="a" d="M15.688,9.857H3.928A.928.928,0,0,1,3.928,8H15.688a.928.928,0,0,1,0,1.857Z" transform="translate(0.713 1.902)"/><path class="a" d="M10.736,13.857H3.928a.928.928,0,1,1,0-1.857h6.808a.928.928,0,1,1,0,1.857Z" transform="translate(0.713 2.854)"/><path class="a" d="M9.5,5.857H3.928A.928.928,0,0,1,3.928,4H9.5a.928.928,0,1,1,0,1.857Z" transform="translate(0.713 0.951)"/></svg>